/* XPM */
static char *f996216283994b70e3d28d3019976329kGq9jDTpiemzOr5G[] = {
/* columns rows colors chars-per-pixel */
"16 16 209 2 ",
"   c None",
".  c #04080B",
"X  c #19180F",
"o  c #0D1010",
"O  c #0E1112",
"+  c #141510",
"@  c #171612",
"#  c #1A1813",
"$  c #1B1B16",
"%  c #1E1E17",
"&  c #14171D",
"*  c #171918",
"=  c #221C0F",
"-  c #201B15",
";  c #241F17",
":  c #292011",
">  c #212219",
",  c #242319",
"<  c #20221C",
"1  c #20221F",
"2  c #2A241D",
"3  c #2A291C",
"4  c #332E16",
"5  c #352C1B",
"6  c #3A321B",
"7  c #3A301C",
"8  c #3F331C",
"9  c #1F2222",
"0  c #242121",
"q  c #272720",
"w  c #252623",
"e  c #282625",
"r  c #262824",
"t  c #292A20",
"y  c #2A2925",
"u  c #2D2E2A",
"i  c #352A22",
"p  c #312F20",
"a  c #323227",
"s  c #3E3523",
"d  c #33302A",
"f  c #37342B",
"g  c #36362B",
"h  c #39372A",
"j  c #39362B",
"k  c #39332E",
"l  c #3A372C",
"z  c #38362E",
"x  c #3E3A33",
"c  c #3C3C33",
"v  c #3D3B36",
"b  c #3F3F36",
"n  c #413520",
"m  c #423720",
"M  c #403522",
"N  c #403822",
"B  c #463820",
"V  c #473A20",
"C  c #403825",
"Z  c #413A26",
"A  c #453B24",
"S  c #453C27",
"D  c #4E3F23",
"F  c #4B3E27",
"G  c #4D312F",
"H  c #413B29",
"J  c #403A2B",
"K  c #413C2A",
"L  c #433E2B",
"P  c #473F2A",
"I  c #463E2C",
"U  c #503D2D",
"Y  c #413F32",
"T  c #583937",
"R  c #4B4226",
"E  c #47412D",
"W  c #494229",
"Q  c #4B402B",
"!  c #4D432C",
"~  c #4E422C",
"^  c #524225",
"/  c #534424",
"(  c #564524",
")  c #53452B",
"_  c #564428",
"`  c #54462B",
"'  c #5B4A28",
"]  c #5A492A",
"[  c #5C4B2F",
"{  c #454030",
"}  c #474131",
"|  c #434235",
" . c #434036",
".. c #494030",
"X. c #4E4631",
"o. c #4D4137",
"O. c #4C4337",
"+. c #42413B",
"@. c #464639",
"#. c #47473C",
"$. c #4E4E3C",
"%. c #504630",
"&. c #534633",
"*. c #544A36",
"=. c #584C33",
"-. c #5C4E34",
";. c #514C3D",
":. c #524D3D",
">. c #584E3A",
",. c #5D5237",
"<. c #5E5337",
"1. c #58523B",
"2. c #68413E",
"3. c #685432",
"4. c #685436",
"5. c #6E5931",
"6. c #63563B",
"7. c #645739",
"8. c #65573B",
"9. c #64563C",
"0. c #69573A",
"q. c #675C3C",
"w. c #3C4248",
"e. c #4D4844",
"r. c #555244",
"t. c #595340",
"y. c #5B5341",
"u. c #585443",
"i. c #5B5543",
"p. c #5C5542",
"a. c #5B5646",
"s. c #5C5447",
"d. c #5D5646",
"f. c #5C5843",
"g. c #5E5B45",
"h. c #5B554B",
"j. c #59584F",
"k. c #5C4C51",
"l. c #614340",
"z. c #634844",
"x. c #685342",
"c. c #655A40",
"v. c #625B49",
"b. c #615C49",
"n. c #625C49",
"m. c #635C4B",
"M. c #775F40",
"N. c #6C565F",
"B. c #61595F",
"V. c #655A5D",
"C. c #795A51",
"Z. c #6A6247",
"A. c #6F6044",
"S. c #6F6145",
"D. c #756B4D",
"F. c #666451",
"G. c #6C6550",
"H. c #6A6454",
"J. c #6C6455",
"K. c #746953",
"L. c #776954",
"P. c #766B54",
"I. c #767157",
"U. c #7B735D",
"Y. c #7B745D",
"T. c #6F6D64",
"R. c #706764",
"E. c #7D676F",
"W. c #797073",
"Q. c #855F54",
"!. c #905958",
"~. c #985D5B",
"^. c #826C43",
"/. c #89744C",
"(. c #887A5D",
"). c #927F57",
"_. c #946564",
"`. c #996E67",
"'. c #817C6C",
"]. c #B96C6C",
"[. c #BB6F6C",
"{. c #A0766F",
"}. c #AF7969",
"|. c #B5776D",
" X c #D07E7B",
".X c #8D8164",
"XX c #8E8365",
"oX c #8D876F",
"OX c #978761",
"+X c #9F906B",
"@X c #818077",
"#X c #8D8C73",
"$X c #968C75",
"%X c #9C9070",
"&X c #9E9477",
"*X c #A28275",
"=X c #B4817E",
"-X c #BE8F7C",
";X c #A39470",
":X c #A29675",
">X c #CB857B",
",X c #737B86",
"<X c #D68D89",
"1X c #CC938D",
"2X c #D39286",
"3X c #DE9A90",
"4X c #E5958E",
"5X c #E89C93",
"6X c #D9A498",
/* pixels */
"          | r.{.`.z.k           ",
"      @ b #X$X3X4X5X6X*Xl.      ",
"    f :., m.Y.-X>X2X1X<X X2.    ",
"  # d.m.) B F x.}.|.=X!.].[.G   ",
"  f Q 0.0._ s X ) Q.C.i T ~._.  ",
"c h [ A.E + % 1.H = S s ..k.E.0 ",
"y.c._ 4.P.< o $.~ 4 Z.:.q v w.O ",
"! 8 V ) -.i.* b =.R XX1 & k e . ",
"n R ^ N Q 1.a p 7.6.A.9 i.P.R.,X",
"7 ( 3./ 6 s h < p.K.H j 9.&.W.N.",
"= ' 5./.<.N M.r u +.y W C x V.B.",
"  ' ^.OXG.3 q.U.w w m.,.k e.o.  ",
"  7 ).+XI.$ W D.@.F.(.H j.o.$   ",
"    *.;X%Xi.L g.#.d.X.d d.,     ",
"      ..XX:X&XoX'.@XT.J.2       ",
"          } 1.m.H.h. .          "
};
