/* XPM */
static char *e9c4629b882c4729d42e01a295674e62BL253nLoDMv8ObVI[] = {
/* columns rows colors chars-per-pixel */
"64 64 250 2 ",
"   c None",
".  c #000000",
"X  c #0A0A06",
"o  c #05060B",
"O  c #060A0C",
"+  c #0B0C0C",
"@  c #080807",
"#  c #120E09",
"$  c #0D110C",
"%  c #13130C",
"&  c #1A170C",
"*  c #050B12",
"=  c #0A0D12",
"-  c #0C0E18",
";  c #0C1113",
":  c #0F1518",
">  c #141413",
",  c #151914",
"<  c #1B1B14",
"1  c #1B1D1B",
"2  c #171617",
"3  c #110F13",
"4  c #251B0D",
"5  c #231D13",
"6  c #271C1A",
"7  c #1C201A",
"8  c #252214",
"9  c #2B2413",
"0  c #24241B",
"q  c #2A251D",
"w  c #2C291C",
"e  c #2F2912",
"r  c #342B14",
"t  c #342D1B",
"y  c #3A2E1A",
"u  c #372A16",
"i  c #3C331C",
"p  c #39321B",
"a  c #29250F",
"s  c #141B25",
"d  c #1C2124",
"f  c #1A2732",
"g  c #242523",
"h  c #2C2C24",
"j  c #282927",
"k  c #322E23",
"l  c #362C28",
"z  c #353224",
"x  c #3C3523",
"c  c #3E3925",
"v  c #34332B",
"b  c #3B362B",
"n  c #3C3A2B",
"m  c #36382F",
"M  c #342E31",
"N  c #343431",
"B  c #3B3A33",
"V  c #393838",
"C  c #2C3031",
"Z  c #43351C",
"A  c #45391E",
"S  c #4B3B1D",
"D  c #403015",
"F  c #443B24",
"G  c #4B3D24",
"H  c #443C2B",
"J  c #493E2C",
"K  c #443527",
"L  c #463B34",
"P  c #563937",
"I  c #4C2D30",
"U  c #653B3A",
"Y  c #4C4226",
"T  c #46412C",
"R  c #4D432B",
"E  c #4B472C",
"W  c #534323",
"Q  c #53452C",
"!  c #54492D",
"~  c #5C4B2C",
"^  c #5A4727",
"/  c #4C4432",
"(  c #45443C",
")  c #4C493B",
"_  c #494536",
"`  c #524632",
"'  c #534B33",
"]  c #5B4D33",
"[  c #534D3B",
"{  c #5A4C3A",
"}  c #55453A",
"|  c #5C5134",
" . c #5B533B",
".. c #59543E",
"X. c #614E2D",
"o. c #64532D",
"O. c #69552C",
"+. c #614E37",
"@. c #635234",
"#. c #6A5534",
"$. c #63553B",
"%. c #64593D",
"&. c #6B5A3C",
"*. c #6A563A",
"=. c #745D35",
"-. c #725B3B",
";. c #7A643C",
":. c #6A603F",
">. c #4F401E",
",. c #3C3D41",
"<. c #403F43",
"1. c #6E3D43",
"2. c #3B4245",
"3. c #4C4C44",
"4. c #494745",
"5. c #574D44",
"6. c #5C5443",
"7. c #5C5A4B",
"8. c #575547",
"9. c #595856",
"0. c #514F53",
"q. c #774845",
"w. c #655B44",
"e. c #6C5D43",
"r. c #635D4C",
"t. c #665744",
"y. c #645956",
"u. c #70534A",
"i. c #6C6144",
"p. c #6C644C",
"a. c #66624C",
"s. c #736244",
"d. c #73644A",
"f. c #7C6C4B",
"g. c #776947",
"h. c #656252",
"j. c #6B6453",
"k. c #6C6A55",
"l. c #6C6A5B",
"z. c #69645A",
"x. c #736B53",
"c. c #736D5A",
"v. c #776952",
"b. c #7A745A",
"n. c #7D714C",
"m. c #6A5B66",
"M. c #6A6A65",
"N. c #7C7661",
"B. c #777866",
"V. c #736C74",
"C. c #5D6169",
"Z. c #836C3F",
"A. c #885755",
"S. c #9B5C5B",
"D. c #894F4D",
"F. c #AA5958",
"G. c #B25E5B",
"H. c #836C43",
"J. c #846B4A",
"K. c #87734C",
"L. c #8B7C5C",
"P. c #867757",
"I. c #917C55",
"U. c #93665A",
"Y. c #AA635E",
"T. c #835B6B",
"R. c #886864",
"E. c #9B6A67",
"W. c #877A64",
"Q. c #997869",
"!. c #876D76",
"~. c #A86B66",
"^. c #B56967",
"/. c #A87468",
"(. c #B5766B",
"). c #AA7574",
"_. c #B87974",
"`. c #B65F63",
"'. c #C57A76",
"]. c #CA7772",
"[. c #7D8069",
"{. c #96845C",
"}. c #8F8059",
"|. c #8D8264",
" X c #8C846B",
".X c #8C8B6C",
"XX c #85826A",
"oX c #92896B",
"OX c #9B8D6C",
"+X c #978765",
"@X c #9C916D",
"#X c #8C8672",
"$X c #8C8A74",
"%X c #898676",
"&X c #958D75",
"*X c #9C9374",
"=X c #9B957A",
"-X c #A9856E",
";X c #A3926D",
":X c #AA8878",
">X c #B88676",
",X c #A19574",
"<X c #A69975",
"1X c #AA9B75",
"2X c #A59A7B",
"3X c #AA9D7A",
"4X c #A39578",
"5X c #B5816E",
"6X c #ADA07C",
"7X c #C9857B",
"8X c #D0877D",
"9X c #797985",
"0X c #8D7482",
"qX c #7D8188",
"wX c #939089",
"eX c #BC8785",
"rX c #A49A86",
"tX c #A39D92",
"yX c #A88989",
"uX c #AAA187",
"iX c #A7A39A",
"pX c #B3A98E",
"aX c #AE9BA6",
"sX c #ABAEBE",
"dX c #999AA4",
"fX c #D88B85",
"gX c #C99589",
"hX c #D7958A",
"jX c #D69994",
"kX c #C7918D",
"lX c #E4958D",
"zX c #EB9C95",
"xX c #E79892",
"cX c #F09A96",
"vX c #D8A498",
"bX c #C9A898",
"nX c #E9A398",
"mX c #F2A49C",
"MX c #D1B9B3",
"NX c #EBACA4",
"BX c #F5AAA3",
"VX c #E8B7AA",
"CX c #F3B7AC",
"ZX c #C3B1C3",
"AX c #D3C9D9",
"SX c #CFDAEB",
"DX c #D7E6F8",
"FX c #E3E5F3",
"GX c #E7C9D6",
"HX c #B9C9D9",
/* pixels */
"                                                    . . . . . . . . . . . .                                                     ",
"                                            . . . , q b P.:X:X:XQ.Q.v.H 3 @ @ . . .                                             ",
"                                      . . @ m r.[.B.k.rXVXNXBXBXBXBXNXNXkXu.I 4 , j O . .                                       ",
"                                  . . , ) $X*X.XXXb.a.MXCXzXcXcXmXBXmXBXBXBXNXvXR.R.%X7.< . .                                   ",
"                              . . 7 8.B.[.$X2X.X.Xb.b.MXCXhXcXlXzXzXcXnXnXnXmXmXNXvXyX$XW.6.6 @ .                               ",
"                            . . $ ( M.B.[.$XrX$XXX[.[.VXVXxXlX8X8XlXlXzXzXxXxXzXNXNXVX:XW.R.P.<.+ .                             ",
"                          . < 1 < < 7.M.[.$X=X.X.X[.b.bXVXnX8X8X8XlXlXzXxXnXlXzXnXnXVXVXvXVXCXkXvX5..                           ",
"                      . @ b _ q $ 7 m M.[.$X=X.X.X[.b.bXbXvX8X8XlXlXhXlXlXxXlXhXxXjXnXVXCXCXCXBXBXcX~.X .                       ",
"                    . + 6.r.5.h > 5 0 _ B.$XrX.X$X[.N.:X1XhXnXhX8X8XlX8XhXhXhXhXnXhXnXvXBXCXBXcXcXcXcX'.4 .                     ",
"                  . % j.k.6.) b < 5 0 9 7.#X#X%X%X%XW.+X-X1XvX8X8X8X8X8XhXhXhX8XgXvXgX>X0XNXlXlXlXlXlX'.^.6 .                   ",
"                . > a.r.a.7.) k < 1 7 8 w b c ..k.B.b.P.-X-X7XgX7X7X].8XgXhX8XhXjXvXeX).).fXfX].].].].^.^.'.q .                 ",
"              . + 6.c.c.a.6.) z 0 0 w q 9 t i F E ..w.t.I.-X1X7X5X(.].7X7X8X7XgXjXvXeX).Y.fXfXF.G.`.^.(.fXfX_.2 .               ",
"              @ ) j.c.j.j.r.) x F c [ R J G K D F G Y ] -.Q.-X>X5X(.(.5X7X7X8XgXkXbXjXA.).kX'.F.F.F.`.`.^.^.].S.@               ",
"            . k } 6.j.y.r.r.6.R ..6.$.Y D Z D Z A F ] ] } -.-X-X5X(.(.(.(.(.(.5X_.eXeXD.)._.S.S.`.`.`.F.F.F.F.F.q..             ",
"          . < l n 6.c.N.c.j.c.j.a.| G y D G Z K Q J Y F x x } :X-X/.(./.Y.5XY././.).jX~.A.q.q.S.^.'.lXxXfX'.^.^.^.I .           ",
"        . @ B x k b 6.r.j.j.c.r.{ G K G G G G G G G Z r & % % K Q.-X/.Y./.Y.Y.~.).).aXbX1.l 1.U S.~._.'.7X7XfX'.'._.& .         ",
"        . h B b b H ) ' 6...[ ! ! ] @.] ! Q G S A K i 9 # @ + % u u./.(./.~./.S.~.Q.).yX6 4 6 I U q.D.D.S.^._._.'.eXT..         ",
"      . X w v z b T /  .i.| G *.s.s.*.] ] ! G D u y K 9 # + $ & t y K S.Q./.~.~.E.E.Q.t.q # 3 6 M I U D.D.S.~.).].0X'.l .       ",
"      . h.n < < z / / ] ! Q &.J.J.-.#.] ! Q ~ G p x i T & X , t F x 4 4 t.Q.Q.Q.Q.R.P P 5.I w 6 g I P U q.A.S.`.^.).).A..       ",
"    . g iXB.$ & 8 c ' Y | s.K.K.H.e.@.@.&.| ! ` E E T T 8 % & ' ' F 9 4 4 q J } L 6 D ` %.` z z j 6 M 1.q.1.A.A.S.E.E.0X6 .     ",
"    . l.uX7.X $ 5 G ! ^ s.;.J.J.-.] ' / w 9 % & 7 z c E w w c ..{ J u w 4 & # & 4 9 x ! %./ 9 0 V b 6 L 5.u.q.T.R.S.T.E.y..     ",
"    X tXl.w % & F G ^ &.;.D.J.J.*./ b % @ @ = ; $ $ 7 c E E | i.| F y t 5 4 & 4 9 t G @.g.' 8 % K y.H 6 <.9.m.m.!.!.!.!.y..     ",
"  . m [.z h < t G X.s.-.*.-.-.-.X.p % = > 2 , > : ; $ w E a.:.p.%.Y i t 5 4 4 4 t y Q #.i.F & &  .%.Y l 6 M m.V.V.0XV.m.V % .   ",
"  . 8.n ) ( p c ~ -.-.-.*.@.#.-.P.N.q = , < X + O X $ , E k.[.x...Y K t 9 8 8 9 p F ! i.g.T 9 z | %.! Y I M 0.9X9X9XC.2.N d .   ",
"  . a.k.b.a./ E #.#.X.X.X.*.-.J.OXOXB % h 1 + ; O ; O + w k.[.x...E K i 9 8 a t F E  .x.n. .p T [ ....w.u.4.V C.V.C.,.C C C o   ",
"  7 *X<XOXP.%.| ! W ^ G X.&.#.-.+XpXc.< 7 7 + O O O O $ $ ) x.x...! G p r e r p T ' a.P.XXk.) b w q h k B 8.) 4.0.9.,.,.f f o   ",
". b 2X+XW.f.| S G S G +.X.#.+.X.*.,XrX[ < b j 2 > + ; O O h c.x. .Y R Z e e r i E %.b.=XrXk.k + $ $ = + + h 3.3.0.C.f - + O . . ",
". [ |.g.i.$.Z i D S G ^ ! ] *.#.~ &.*X&Xc 7 m m g 1 > o $ 0 c.p. .! / F p r p Y | a.L.pXrXB + @ O * : ; + + h ( 0.0.s * * O O . ",
".  .P.d.t.F u u Z Z K S Q Q ] ` Q ^ *.OX#XK < q 0 : O o = 0 k.p.' ' E Y p p A E %.d.oXpX#X, + * - - ; 1 > * 0 ( 3.C = * + O O . ",
". %.f.%.G Z u r Z K Z G ~ G G ] ] ] ! $.b.#X8.0 $ O = = ; 1 k.i. .| ! Y i A A E *.s.OXpX5.+ % * * * * d : = 0 / _ j ; * O * O . ",
". *.*.W A y r r S G S G Q Q Q ~ ! Q ` ] | p.c.h.z 2 ; : ; 7 a.x.e.| ! ! E A E | e.K.2XpXv + 1 : - - : f : g 7.$.` l ; * * O O . ",
". &.~ S y y y D G G Z S G Q G G G Q ` ] ` '  .N.7.0 , : ; 0 ..f.%.| ! ! ! E ! o.s.L.2X=X0 O s C C d g d , 5.W.W.t.} : - * * * . ",
". &.^ A y Z Z F W G S D G F E i G ` ] +.6...6.6.7.m 7 : ; 0 E :.%.@.| | ] ! i %.i.I.,Xb.> > ; d h g 7 7 3.=X&Xv.-.} j - s f f o ",
". @.~ A u S A W Q ^ S y A F Z i i F `  .t.$. .....T 0 , > 0 c | @.| | @.] ] Y H e.J.L.[ 1 d : 2 7 k n l.&XrXW.s.-.t.C.sXHXSXsX. ",
". ] ~ F Z >.~ ^ ~ ~ W S Z F i u t H J ` ` ` { ..) c 0 < , 0 p E | %.:.:.%.e.i.e.d.s.s.c 1 d g 4.B. X=X|.W.u.{ -.*.5.0XSXDXDXsX. ",
". G o.>.Y @.#.X.~ o.~ W S A i u x F H R / ! J [ T m 0 0 , $ w E  .@.&.f.P.f.f.d.g.%.' z : s 0 7.oXW.v.e.$.$.{ +.+.P 9XDXFXFXdX. ",
". u ~ Q W ~ o.~ @.o.X.~ S S Z r p c F E J Y / L c z h 0 $ $ z T ] %.d.v.v.L.P.s.e.%.F 9 < d b h.b.i.t.e.t.t.{ } +.) 9XSXZXaXy.. ",
". 5 @.^ >.W ~ ~ X.*.#.X.>.S S r r i i x F F x x c T c w $ $ g n [  .d.v.v.b.P.v.i.] i 7 1 1 T r.&.$.%.] | } } { } ( 0XAX!.yXM . ",
"  % ~ ^ >.>.>.W ~ #.;.=.#.X.G S u e p r 9 9 p c T T T n 0 X 7 h z [ h.j.r.r.j.d.6.E k $ j 0 n $.i.$.w.{ J Q R / L L 9XAX0XGXg   ",
"  . W ^ >.W >.^ ~ #.=.=.=.=.O.X.>.u 9 a 9 p c T / E ..' z $ > v v B 7.y.c.l.h.r._ L q % h h c ! ~ ~ | Y ~ K x n L V 0XZXT.T..   ",
"  . y ^ W W W ^ ^ O.O.Z.Z.;.Z.-.o.W i t y x F F ] %.e.$.b & , j g B ( 3.3.0.4.4.m C < % b z c F G Y Q ] J H K V L L V.ZXaX0Xo   ",
"  . & ^ ^ ^ ^ X.^ O.O.Z.Z.Z.K.K.P.| F p p x F ! e.s.J.e.c $ , d d C C ( 3.3.( ( V C > q c F c i F E F A F L V <.,.L m.dXSX9..   ",
"    . W ^ ~ ~ ~ X.O.=.=.Z.K.I.{.{.g.E p y F H [ %.P.n.d. .& $ d 7 g g B ( ( B v M M 1 b ] / c x t x y p z v <.,.<.<.u.yXAX+     ",
"    . u ^ X.o.o.O.=.Z.Z.Z.I.{.;X@XoX..p x k w H { w.g.g.b._ $ > O > h m B B N g g j < H i.%.Y i w w t k k N ,.<.0.L 5.0Xm..     ",
"    . % ^ o.O.O.O.=.Z.H.g.K.L.L.W.|.a.8 % & , 9 r E :.n.|.$Xv O o O v N v N j s : d q w.K.n.! c w 9 0 h g M <.4.3.b +.!.g .     ",
"      . A X.o.O.O.=.H.{.}.I.{.OX@XoXl.> > , q z A :.n.n.+X=Xk.g = + C v h B 1 O = 0 j.P.n.g.| Y t w h j b <.5.9.4.K t.5..       ",
"      . & o.O.:.Z.Z.Z.}.{.;X;X@X,X*Xj.< 7 z / i.i.g.J.K.|.,X=Xl.h 1 C j h C $ , B $X4XP.g.e.' J z v _ ) [ 8.8.9.L L e.6 .       ",
"        . S =.Z.K.K.Z.I.{.;X<X<X,X=X7.# $ 7 p T T ! &.g.L.@X=X&Xr.0 j g j j 7 ) W.rX3Xn.| J H z n 3.7.7.y.y.5.5.L ` J .         ",
"        . X =.g.H.I.}.{.{.;X1X1X*X.Xa.% + , < & 8 a E :.n..X@X*X.Xv 7 7 d 7 8.$X2XuX,XL.] K 9 , M M.M.z.y.6.[ L L ` + .         ",
"          . u J.K.{.{.{.;X+X+X}.|..XB.& ; 7 < 0 t i %.g.n.}.}..X&Xh., , 7 8.%X*XOXOXL.L.J.j.J < j M.z.l.6.} L H / 0 .           ",
"            . ] I.{.{.{.}.{.@X1X<X@XXXw > 1 j x E ' | :.:.:.:.p.b.l.j , 3..X.X|.|.L.d.] ' ) 5.v j M.7.8.5./ H K q .             ",
"              X Z.I.}.;X<X<X3X1X<X*XW.7.< + % < 8 a A E | E E F ) h.m z l.k.p.g.P.P.d.G w 9 j g N B.M.6._ L K k .               ",
"              . & I.;X;X1X1X1X<X@X.Xb.P.) , , 1 q p / Y ' E c ) 8.8.C ) h.E E ..u.d.i.' x q 2 > 3.z.z.{ L H x X .               ",
"                . 5 +X;X1X1X1X@X|.|.OX*X X_ < & 7 z i ! ....7.k.) h 7 ( k...T T / ' / E L v 1 j M.h.[ L J H + .                 ",
"                  . 5 +X1X1X+X}.*X2X3X<X|.XX7.w < 8 i ! p.[.k.8.( 2.B m 8.c.a.[ [ H p 0 0 0 g y.y.5.6.` H # .                   ",
"                    . & |.+X;X<X6X6X6X4X<X,X Xb.a...7.k.x.a.7.8.7.h.7.8.8.c.k.6.' / n h 0 l 3.z.x.6.{ J @ .                     ",
"                      . X v.1X1X3X3X6X3X2X1X2X2X*XoX|..XN.k.h.7.k.h.h.7.7.h.l.l.( w q h 8.B.z.6.r.t.x @ .                       ",
"                          . / @X1X1X1X2X1X2X<X2X2X2XrXrX=XXXN.c.[.k.l.B.B.B.M.M.9.2.z.%X&X%XN.x.t.q .                           ",
"                            . % p.,X,X*X*X,X*X*X*XrXuXuXrX<X=X*X.X$X$X%X%XwXwXqXwXwXwXwX%X&XR.} + .                             ",
"                              . . q x.*X@X*X@XOX+XOXOX*X=XuXuXrXrXwXtXtXtXiXiXdXtXwXwX&X#Xr.6 . .                               ",
"                                  . . 8 6.|.+X+X.XoXoX|. XoXrXrXtXtXiXtXtXiXwX=X&X$X$X7.< . .                                   ",
"                                      . . @ z 6.P..X XP.b.P.|.$XOX*X*X X%XB.N.x.5.z @ . .                                       ",
"                                            . . . , h c 5.w.e.x.b.p.r.6.H h # . . .                                             ",
"                                                    . . . . . . . . . . . .                                                     "
};
