/* XPM */
static char *_fbcb5b5da624ca58c3fe5b5fbdd52b51oEJP5zkqhcFWbxF[] = {
/* columns rows colors chars-per-pixel */
"32 32 218 2 ",
"   c None",
".  c #040403",
"X  c #090706",
"o  c #090907",
"O  c #0B0B0B",
"+  c #070B0F",
"@  c #100E0C",
"#  c #0F110F",
"$  c #14130D",
"%  c #1A170E",
"&  c #0B0E13",
"*  c #040B11",
"=  c #0D1213",
"-  c #141413",
";  c #171916",
":  c #1B1B14",
">  c #141719",
",  c #191B1A",
"<  c #161917",
"1  c #251C0E",
"2  c #221C15",
"3  c #221F19",
"4  c #291819",
"5  c #1D2119",
"6  c #272112",
"7  c #2C2516",
"8  c #24231B",
"9  c #29251A",
"0  c #2C2A1D",
"q  c #2E2A15",
"w  c #322B15",
"e  c #332D1D",
"r  c #36281B",
"t  c #3C321C",
"y  c #3A3015",
"u  c #1A1E23",
"i  c #121A21",
"p  c #1C2021",
"a  c #2C2B23",
"s  c #2A2C2B",
"d  c #272724",
"f  c #332E23",
"g  c #352B2B",
"h  c #322623",
"j  c #3B3624",
"k  c #35332C",
"l  c #3B352A",
"z  c #3C3A2D",
"x  c #3A3625",
"c  c #3C3A33",
"v  c #373939",
"b  c #43351C",
"n  c #4A3B1F",
"m  c #442A28",
"M  c #433623",
"N  c #443A23",
"B  c #493B22",
"V  c #443D2B",
"C  c #4D3E2A",
"Z  c #433D34",
"A  c #433D39",
"S  c #4B3E36",
"D  c #593838",
"F  c #4C4226",
"G  c #4C432C",
"H  c #534423",
"J  c #53452B",
"K  c #54492F",
"L  c #5B4A2C",
"P  c #5B4828",
"I  c #454134",
"U  c #4D4534",
"Y  c #4E4933",
"T  c #44433B",
"R  c #4B493B",
"E  c #534333",
"W  c #554C33",
"Q  c #5A4D34",
"!  c #55443B",
"~  c #544B3A",
"^  c #594A38",
"/  c #5D5135",
"(  c #5C533B",
")  c #56533D",
"_  c #604E2B",
"`  c #67542E",
"'  c #614E3B",
"]  c #625335",
"[  c #6D5933",
"{  c #63553C",
"}  c #67583A",
"|  c #745D3B",
" . c #735B37",
".. c #786138",
"X. c #393D41",
"o. c #4C4B44",
"O. c #4B4A4A",
"+. c #494543",
"@. c #524D44",
"#. c #584844",
"$. c #4F5149",
"%. c #525145",
"&. c #5C5443",
"*. c #5D594A",
"=. c #4E5255",
"-. c #555657",
";. c #554F54",
":. c #674844",
">. c #7A4947",
",. c #645C44",
"<. c #635D4B",
"1. c #6D5C4B",
"2. c #6C5E43",
"3. c #625F53",
"4. c #765C4C",
"5. c #6E6144",
"6. c #6C654D",
"7. c #68634B",
"8. c #746345",
"9. c #74654B",
"0. c #75684D",
"q. c #7B6B4A",
"w. c #7B6543",
"e. c #656351",
"r. c #6B6554",
"t. c #6D6956",
"y. c #6C6A5B",
"u. c #726C55",
"i. c #7B6F59",
"p. c #7F7257",
"a. c #73725B",
"s. c #5D5960",
"d. c #795C60",
"f. c #5D6068",
"g. c #686667",
"h. c #7D7B65",
"j. c #7E7C6A",
"k. c #7C7767",
"l. c #786769",
"z. c #995D5B",
"x. c #B05C5E",
"c. c #836B49",
"v. c #846D43",
"b. c #89744B",
"n. c #8D784E",
"m. c #82765C",
"M. c #897A58",
"N. c #886355",
"B. c #AB615E",
"V. c #B2635F",
"C. c #8D6765",
"Z. c #9D6967",
"A. c #877D65",
"S. c #91726B",
"D. c #8E6870",
"F. c #897F70",
"G. c #A66C64",
"H. c #B76A68",
"J. c #A87667",
"K. c #B5746D",
"L. c #B37C6C",
"P. c #A97471",
"I. c #BA7B79",
"U. c #CA7C77",
"Y. c #97855D",
"T. c #848166",
"R. c #8E8363",
"E. c #88846B",
"W. c #928364",
"Q. c #968862",
"!. c #9C8D65",
"~. c #948A6C",
"^. c #998C6B",
"/. c #898772",
"(. c #948A7A",
"). c #969276",
"_. c #9D9372",
"`. c #9B927A",
"'. c #A4886C",
"]. c #A2906A",
"[. c #A29474",
"{. c #A59B7C",
"}. c #A89C7A",
"|. c #A69878",
" X c #B98F7A",
".X c #C38075",
"XX c #C1837B",
"oX c #C2917E",
"OX c #737684",
"+X c #A17A8A",
"@X c #8D828D",
"#X c #948F82",
"$X c #9C9483",
"%X c #96958E",
"&X c #9A9497",
"*X c #A89B83",
"=X c #B9948A",
"-X c #AA8E98",
";X c #A39AA9",
":X c #A7ABB9",
">X c #C78D86",
",X c #D58981",
"<X c #DC8B85",
"1X c #D18582",
"2X c #CE9286",
"3X c #D8968A",
"4X c #CF9490",
"5X c #D79B90",
"6X c #E08D88",
"7X c #E4978E",
"8X c #EA9A93",
"9X c #DBA499",
"0X c #E7A399",
"qX c #F3A59E",
"wX c #E6ACA2",
"eX c #ECACA4",
"rX c #EFB1A6",
"tX c #DEE8F8",
/* pixels */
"                        o ; S #.S h X .                         ",
"                  o z a.p.(.rXqXqXeX>XC.#.v o                   ",
"              . 5 y.E.).T.*XwX<X7X8X8X0XwX*Xm.g .               ",
"            - 9 : -.E.).E.{.9X,X6X7X7X7X8XwXrXeX>Xh             ",
"          8 <.Z : 0 h.(./.F. X3X,X,X7X3X5X4X9X8X8X<Xm           ",
"        3 r.*.V 5 9 e V ,.0.'.oX.X.XoX2X9XI.I.U.U.H.U.m         ",
"      O &.r.e.U U E M b B Q 5.'.L.K..XXX=XP.I.x.x.x.V.B.4       ",
"    . f V r.t.r./ M n B C b 7 ! '.G.G.V.P.=X:.>.H.U.,XH.Z.o     ",
"    : k l W ( W { ] J B t e @ $ C N.J.G.G.S.2 4 D >.z.K.+X#.    ",
"  @ a.% x W / c.w.] Q J N N % 0 V 1 E 4.:.C ~ a h D >.z.H.G.O   ",
"  T e.$ m L w.c.] j % - 5 x j W J r % % 9 J ( 6 T f #.d.D.D.g   ",
"  %.c 0 L | [  .,.- < $ O 5 ( u.W t 6 6 t / W 7 { C g f.OXs.s   ",
"O A.m.W _ P ] 4.[.k 8 + & O z a.W M q w F 6.u.V V I @.O.f.X.s . ",
"9 W.9.B n J _ ] w.F.0 s ; + : u.~ B w t ( ~.h.$ + & - T ;.> * . ",
"e 0.F w b B J J P 8.a.a - + ; 6./ G t F 5.*Xc & & > & l v & * . ",
"e L t y B B J J J E / r.k = ; 6.{ K F W q.*X: p u u d u.U & * . ",
"e F b B H b N n N ^ ( &.Y 5 5 W ] / Q G q.p., > d z /.m.{ ;.OXX.",
"7 H H _ L H b y j G W Y z 5 ; N / 5.8.8.5.Y , c T.h.1.' ' :XtX=.",
"% J H L ] ` n b t N F V z 0 # k / 0.p.p.} f , ~ 5.{ { ^ D :X-Xs ",
"X P H H _ ..[ H y w q x G Y 5 5 c e.r.7.U 5 a G / / C V A ;X+X& ",
"  b P P _ ..v.q.} t t F } 5.8 5 s T $.+.k , x N C H V A A +X&X  ",
"  1 P L ` ..b.Y.R.F j z 5.q.Y ; ; s v k s a { j e e k X.+.l.;.  ",
"  . P [ [ b.b.Y.~.Z $ 9 F q.~.k + k k , , ,.q.J 0 d l O.A 1.&   ",
"    q ..v.b.!.[._.z 5 Y ( q.Q./.k s s 5 k.Q.{ V z %.&.;.S f     ",
"    . [ n.Y.!.^.^.I = 5 q } R.Q.t., s j.|.A.,.9 O.y.*.S V .     ",
"      : n.Q.!.|._.e.- 9 t K / ) e.0 a.m.M.{ j l O.<.U M o       ",
"        r ].}.|.Q.E.R - 0 F W ) R k *.G { ^ k , e.@.V -         ",
"          j ].!.}.}.~.7.I ) t.*.$.o.e.,.U f 8 #.<.! %           ",
"            8 W.}.}.}.|.`.(.A.t.t.y.y.y.A o.j.r.~ $             ",
"              . Y ^.[._._.{.{.{.`.#X%X%X%X#XA.c .               ",
"                  O z 6.R.R.A.).$X$X#X/.t.Z O                   ",
"                        O : f k l f : o                         "
};
